<svg width="120" height="30" viewBox="0 0 83 14" fill="none" xmlns="http://www.w3.org/2000/svg">
<path d="M7.25416 13.4999H5.50118C4.65417 13.4999 4.00015 13.2748 3.53912 12.8245C3.07809 12.3742 2.84758 11.7255 2.84758 10.8785V5.78037C2.84758 4.93336 3.07809 4.2847 3.53912 3.83439C4.00015 3.38409 4.65417 3.15893 5.50118 3.15893H7.25416C8.09045 3.15893 8.73911 3.38945 9.20014 3.85048C9.67189 4.30079 9.90777 4.94408 9.90777 5.78037V6.53624C9.90777 6.77212 9.78983 6.89006 9.55395 6.89006H8.20303C7.97787 6.89006 7.8653 6.77212 7.8653 6.53624V5.87686C7.8653 5.53377 7.79025 5.29254 7.64014 5.15315C7.50076 5.00305 7.25952 4.928 6.91643 4.928H5.82283C5.49046 4.928 5.24922 5.00305 5.09912 5.15315C4.95974 5.29254 4.89005 5.53377 4.89005 5.87686V10.782C4.89005 11.1251 4.95974 11.3717 5.09912 11.5218C5.24922 11.6612 5.49046 11.7309 5.82283 11.7309H6.91643C7.25952 11.7309 7.50076 11.6612 7.64014 11.5218C7.79025 11.3717 7.8653 11.1251 7.8653 10.782V10.1226C7.8653 9.88675 7.97787 9.76881 8.20303 9.76881H9.55395C9.78983 9.76881 9.90777 9.88675 9.90777 10.1226V10.8785C9.90777 11.7148 9.67189 12.3634 9.20014 12.8245C8.73911 13.2748 8.09045 13.4999 7.25416 13.4999Z" fill="#7D5D3F"/>
<path d="M13.206 13.4999H11.839C11.6139 13.4999 11.5013 13.3874 11.5013 13.1622V2.53172C11.5013 2.30656 11.6139 2.19399 11.839 2.19399H13.206C13.4312 2.19399 13.5438 2.30656 13.5438 2.53172V6.16635H13.6081C13.844 5.58738 14.3693 5.2979 15.1842 5.2979H15.6988C17.3821 5.2979 18.2238 6.17171 18.2238 7.91933V13.1622C18.2238 13.3874 18.1058 13.4999 17.87 13.4999H16.519C16.2939 13.4999 16.1813 13.3874 16.1813 13.1622V8.01583C16.1813 7.67274 16.1062 7.4315 15.9561 7.29212C15.8168 7.14202 15.5755 7.06696 15.2324 7.06696H14.6535C13.9137 7.06696 13.5438 7.47439 13.5438 8.28923V13.1622C13.5438 13.3874 13.4312 13.4999 13.206 13.4999Z" fill="#7D5D3F"/>
<path d="M23.8436 13.4999H22.4122C21.5652 13.4999 20.9112 13.2748 20.4502 12.8245C19.9892 12.3742 19.7586 11.7255 19.7586 10.8785V7.91933C19.7586 7.07233 19.9892 6.42367 20.4502 5.97336C20.9112 5.52305 21.5652 5.2979 22.4122 5.2979H23.8436C24.6799 5.2979 25.3285 5.52841 25.7895 5.98944C26.2613 6.43975 26.4972 7.08305 26.4972 7.91933V10.8785C26.4972 11.7148 26.2613 12.3634 25.7895 12.8245C25.3285 13.2748 24.6799 13.4999 23.8436 13.4999ZM22.7178 11.747H23.538C23.8811 11.747 24.1223 11.6773 24.2617 11.5379C24.4118 11.3985 24.4869 11.1573 24.4869 10.8142V7.98366C24.4869 7.64057 24.4118 7.39933 24.2617 7.25995C24.1223 7.12057 23.8811 7.05088 23.538 7.05088H22.7178C22.3747 7.05088 22.1335 7.12057 21.9941 7.25995C21.8547 7.39933 21.785 7.64057 21.785 7.98366V10.8142C21.785 11.1573 21.8547 11.3985 21.9941 11.5379C22.1335 11.6773 22.3747 11.747 22.7178 11.747Z" fill="#7D5D3F"/>
<path d="M33.3288 12.0686V13.1783C33.3288 13.2962 33.302 13.382 33.2484 13.4356C33.2055 13.4785 33.1197 13.4999 32.9911 13.4999H30.5948C29.7478 13.4999 29.0938 13.2748 28.6327 12.8245C28.1717 12.3742 27.9412 11.7255 27.9412 10.8785V7.91933C27.9412 7.07233 28.1717 6.42367 28.6327 5.97336C29.0938 5.52305 29.7478 5.2979 30.5948 5.2979H32.9911C33.2162 5.2979 33.3288 5.41047 33.3288 5.63563V6.74532C33.3288 6.86325 33.302 6.94903 33.2484 7.00263C33.2055 7.04552 33.1197 7.06696 32.9911 7.06696H30.9165C30.5841 7.06696 30.3428 7.14202 30.1927 7.29212C30.0534 7.4315 29.9837 7.67274 29.9837 8.01583V10.782C29.9837 11.1251 30.0534 11.3717 30.1927 11.5218C30.3428 11.6612 30.5841 11.7309 30.9165 11.7309H32.9911C33.2162 11.7309 33.3288 11.8434 33.3288 12.0686Z" fill="#7D5D3F"/>
<path d="M38.6382 13.4999H37.2068C36.3598 13.4999 35.7058 13.2748 35.2448 12.8245C34.7837 12.3742 34.5532 11.7255 34.5532 10.8785V7.91933C34.5532 7.07233 34.7837 6.42367 35.2448 5.97336C35.7058 5.52305 36.3598 5.2979 37.2068 5.2979H38.6382C39.4744 5.2979 40.1231 5.52841 40.5841 5.98944C41.0559 6.43975 41.2918 7.08305 41.2918 7.91933V10.8785C41.2918 11.7148 41.0559 12.3634 40.5841 12.8245C40.1231 13.2748 39.4744 13.4999 38.6382 13.4999ZM37.5124 11.747H38.3326C38.6757 11.747 38.9169 11.6773 39.0563 11.5379C39.2064 11.3985 39.2815 11.1573 39.2815 10.8142V7.98366C39.2815 7.64057 39.2064 7.39933 39.0563 7.25995C38.9169 7.12057 38.6757 7.05088 38.3326 7.05088H37.5124C37.1693 7.05088 36.9281 7.12057 36.7887 7.25995C36.6493 7.39933 36.5796 7.64057 36.5796 7.98366V10.8142C36.5796 11.1573 36.6493 11.3985 36.7887 11.5379C36.9281 11.6773 37.1693 11.747 37.5124 11.747Z" fill="#7D5D3F"/>
<path fill-rule="evenodd" clip-rule="evenodd" d="M2.65462 1.08421C3.92544 0.266972 5.40017 -0.000551293 6.52667 8.5262e-07C6.80281 0.000136202 7.00874 0.241926 6.98756 0.517255C6.96638 0.792584 6.72579 0.997088 6.44966 1.00032C5.48364 1.01163 4.24335 1.25145 3.1955 1.9253C2.07389 2.64659 1.12998 3.89023 1.00226 6.01699C0.985704 6.29264 0.763702 6.51725 0.48756 6.51725C0.211417 6.51725 -0.0140415 6.29315 0.000682538 6.0174C0.132704 3.54494 1.24579 1.99019 2.65462 1.08421Z" fill="#D5904E"/>
<path d="M44.6858 13.4999H44.2194C44.1122 13.4999 44.0586 13.4356 44.0586 13.3069V2.38698C44.0586 2.25832 44.1122 2.19399 44.2194 2.19399H44.6858C44.8037 2.19399 44.8627 2.25832 44.8627 2.38698V13.3069C44.8627 13.4356 44.8037 13.4999 44.6858 13.4999Z" fill="#D5904E"/>
<path d="M50.4749 13.4999H49.4456C48.7487 13.4999 48.1965 13.2962 47.7891 12.8888C47.3924 12.4814 47.194 11.9239 47.194 11.2162V7.5816C47.194 6.87398 47.3924 6.31645 47.7891 5.90903C48.1965 5.50161 48.7487 5.2979 49.4456 5.2979H52.8551C52.9623 5.2979 53.0159 5.36223 53.0159 5.49089V13.3069C53.0159 13.4356 52.9623 13.4999 52.8551 13.4999H52.3887C52.2707 13.4999 52.2118 13.4356 52.2118 13.3069V12.6637H52.1474C51.8687 13.2212 51.3111 13.4999 50.4749 13.4999ZM52.2118 11.2002V6.16635C52.2118 6.06985 52.1582 6.02161 52.0509 6.02161H49.5099C49.0167 6.02161 48.6415 6.16099 48.3841 6.43975C48.1268 6.71851 47.9982 7.10985 47.9982 7.61377V11.1841C47.9982 11.688 48.1268 12.0793 48.3841 12.3581C48.6415 12.6368 49.0167 12.7762 49.5099 12.7762H50.5553C51.0699 12.7762 51.472 12.6422 51.7615 12.3742C52.0617 12.0954 52.2118 11.7041 52.2118 11.2002Z" fill="#D5904E"/>
<path d="M55.7813 6.02161H54.8003C54.6823 6.02161 54.6234 5.968 54.6234 5.86078V5.4748C54.6234 5.35687 54.6823 5.2979 54.8003 5.2979H55.7813C55.8778 5.2979 55.9261 5.24965 55.9261 5.15315V3.85048C55.9261 3.72182 55.985 3.65749 56.103 3.65749H56.5693C56.6873 3.65749 56.7463 3.72182 56.7463 3.85048V5.15315C56.7463 5.24965 56.7945 5.2979 56.891 5.2979H58.8048C58.9227 5.2979 58.9817 5.35687 58.9817 5.4748V5.86078C58.9817 5.968 58.9227 6.02161 58.8048 6.02161H56.891C56.7945 6.02161 56.7463 6.06985 56.7463 6.16635V11.2323C56.7463 11.7255 56.8856 12.1061 57.1644 12.3742C57.4432 12.6422 57.8345 12.7762 58.3384 12.7762H58.9656C59.0836 12.7762 59.1425 12.8352 59.1425 12.9531V13.323C59.1425 13.441 59.0836 13.4999 58.9656 13.4999H58.2741C57.5665 13.4999 56.9982 13.3016 56.5693 12.9049C56.1405 12.5082 55.9261 11.9614 55.9261 11.2645V6.16635C55.9261 6.06985 55.8778 6.02161 55.7813 6.02161Z" fill="#D5904E"/>
<path d="M66.4549 13.4999H63.0937C62.3968 13.4999 61.8446 13.2962 61.4372 12.8888C61.0405 12.4814 60.8421 11.9239 60.8421 11.2162V7.5816C60.8421 6.87398 61.0405 6.31645 61.4372 5.90903C61.8446 5.50161 62.3968 5.2979 63.0937 5.2979H64.4768C65.1737 5.2979 65.7258 5.50161 66.1332 5.90903C66.5407 6.31645 66.7444 6.87398 66.7444 7.5816V9.62407C66.7444 9.75273 66.6801 9.81706 66.5514 9.81706H61.791C61.6945 9.81706 61.6462 9.86531 61.6462 9.9618V11.2002C61.6462 11.7041 61.7749 12.0954 62.0322 12.3742C62.2895 12.6422 62.6648 12.7762 63.158 12.7762H66.4549C66.5728 12.7762 66.6318 12.8352 66.6318 12.9531V13.323C66.6318 13.441 66.5728 13.4999 66.4549 13.4999ZM61.791 9.17376H65.7955C65.892 9.17376 65.9403 9.12552 65.9403 9.02902V7.59768C65.9403 7.09377 65.8116 6.70779 65.5543 6.43975C65.297 6.16099 64.9217 6.02161 64.4285 6.02161H63.158C62.6648 6.02161 62.2895 6.16099 62.0322 6.43975C61.7749 6.70779 61.6462 7.09377 61.6462 7.59768V9.02902C61.6462 9.12552 61.6945 9.17376 61.791 9.17376Z" fill="#D5904E"/>
<path d="M69.5457 13.4999H69.0793C68.9721 13.4999 68.9185 13.4356 68.9185 13.3069V5.49089C68.9185 5.36223 68.9721 5.2979 69.0793 5.2979H69.5457C69.6637 5.2979 69.7226 5.36223 69.7226 5.49089V6.16635H69.787C69.9049 5.94119 70.114 5.74284 70.4142 5.5713C70.7144 5.38903 71.0843 5.2979 71.5239 5.2979H72.1511C72.269 5.2979 72.328 5.35687 72.328 5.4748V5.86078C72.328 5.97872 72.269 6.03233 72.1511 6.02161H71.3952C70.8699 6.02161 70.4571 6.18243 70.1569 6.50408C69.8674 6.82573 69.7226 7.25995 69.7226 7.80676V13.3069C69.7226 13.4356 69.6637 13.4999 69.5457 13.4999Z" fill="#D5904E"/>
<path d="M74.0404 3.94697V2.40306C74.0404 2.28512 74.094 2.22615 74.2012 2.22615H74.6837C74.7909 2.22615 74.8445 2.28512 74.8445 2.40306V3.94697C74.8445 4.07563 74.7909 4.13996 74.6837 4.13996H74.2012C74.094 4.13996 74.0404 4.07563 74.0404 3.94697ZM74.0404 13.3069V5.49089C74.0404 5.36223 74.094 5.2979 74.2012 5.2979H74.6676C74.7856 5.2979 74.8445 5.36223 74.8445 5.49089V13.3069C74.8445 13.4356 74.7909 13.4999 74.6837 13.4999H74.2012C74.094 13.4999 74.0404 13.4356 74.0404 13.3069Z" fill="#D5904E"/>
<path d="M80.4567 13.4999H79.4274C78.7305 13.4999 78.1783 13.2962 77.7709 12.8888C77.3742 12.4814 77.1758 11.9239 77.1758 11.2162V7.5816C77.1758 6.87398 77.3742 6.31645 77.7709 5.90903C78.1783 5.50161 78.7305 5.2979 79.4274 5.2979H82.8369C82.9441 5.2979 82.9977 5.36223 82.9977 5.49089V13.3069C82.9977 13.4356 82.9441 13.4999 82.8369 13.4999H82.3705C82.2525 13.4999 82.1936 13.4356 82.1936 13.3069V12.6637H82.1292C81.8505 13.2212 81.293 13.4999 80.4567 13.4999ZM82.1936 11.2002V6.16635C82.1936 6.06985 82.14 6.02161 82.0327 6.02161H79.4917C78.9985 6.02161 78.6233 6.16099 78.3659 6.43975C78.1086 6.71851 77.98 7.10985 77.98 7.61377V11.1841C77.98 11.688 78.1086 12.0793 78.3659 12.3581C78.6233 12.6368 78.9985 12.7762 79.4917 12.7762H80.5371C81.0517 12.7762 81.4538 12.6422 81.7433 12.3742C82.0435 12.0954 82.1936 11.7041 82.1936 11.2002Z" fill="#D5904E"/>
</svg>
