<svg width="16" height="16" viewBox="0 0 16 16" fill="none" xmlns="http://www.w3.org/2000/svg">
<path d="M10.2542 14.4999H8.50118C7.65417 14.4999 7.00015 14.2748 6.53912 13.8245C6.07809 13.3742 5.84758 12.7255 5.84758 11.8785V6.78037C5.84758 5.93336 6.07809 5.2847 6.53912 4.83439C7.00015 4.38409 7.65417 4.15893 8.50118 4.15893H10.2542C11.0905 4.15893 11.7391 4.38945 12.2001 4.85048C12.6719 5.30079 12.9078 5.94408 12.9078 6.78037V7.53624C12.9078 7.77212 12.7898 7.89006 12.554 7.89006H11.203C10.9779 7.89006 10.8653 7.77212 10.8653 7.53624V6.87686C10.8653 6.53377 10.7902 6.29254 10.6401 6.15315C10.5008 6.00305 10.2595 5.928 9.91643 5.928H8.82283C8.49046 5.928 8.24922 6.00305 8.09912 6.15315C7.95974 6.29254 7.89005 6.53377 7.89005 6.87686V11.782C7.89005 12.1251 7.95974 12.3717 8.09912 12.5218C8.24922 12.6612 8.49046 12.7309 8.82283 12.7309H9.91643C10.2595 12.7309 10.5008 12.6612 10.6401 12.5218C10.7902 12.3717 10.8653 12.1251 10.8653 11.782V11.1226C10.8653 10.8868 10.9779 10.7688 11.203 10.7688H12.554C12.7898 10.7688 12.9078 10.8868 12.9078 11.1226V11.8785C12.9078 12.7148 12.6719 13.3634 12.2001 13.8245C11.7391 14.2748 11.0905 14.4999 10.2542 14.4999Z" fill="#7D5D3F"/>
<path fill-rule="evenodd" clip-rule="evenodd" d="M5.65462 2.08421C6.92544 1.26697 8.40017 0.999449 9.52667 1C9.80281 1.00014 10.0087 1.24193 9.98756 1.51726C9.96638 1.79258 9.72579 1.99709 9.44966 2.00032C8.48364 2.01163 7.24335 2.25145 6.1955 2.9253C5.07389 3.64659 4.12998 4.89023 4.00226 7.01699C3.9857 7.29264 3.7637 7.51725 3.48756 7.51725C3.21142 7.51725 2.98596 7.29315 3.00068 7.0174C3.1327 4.54494 4.24579 2.99019 5.65462 2.08421Z" fill="#D5904E"/>
</svg>
